<svg width="268" height="70" viewBox="0 0 268 70" fill="none" xmlns="http://www.w3.org/2000/svg">
<g clip-path="url(#clip0)">
<path d="M79.979 0H30.8252V41.1517H67.0961L79.979 53.2625" fill="#0D509C"/>
<path d="M0 16.8198H49.1538V57.9687H12.8829L0 70.0824" fill="#FDC602"/>
<path d="M30.8037 16.8081H49.1195V41.1229H30.8037V16.8081Z" fill="#093E01"/>
</g>
<path d="M112.009 27.9503C112.328 27.9503 112.553 28.0084 112.685 28.1246C112.817 28.2408 112.883 28.4345 112.883 28.7057V31.3785C112.883 31.6497 112.817 31.8434 112.685 31.9596C112.553 32.0758 112.328 32.1339 112.009 32.1339C111.714 32.1339 111.512 32.0332 111.404 31.8317C111.031 31.1267 110.507 30.5922 109.831 30.228C109.156 29.8562 108.387 29.6702 107.525 29.6702C106.671 29.6702 106.007 29.8678 105.533 30.2629C105.068 30.658 104.835 31.1887 104.835 31.855C104.835 32.1726 104.916 32.4399 105.079 32.6568C105.242 32.8738 105.475 33.0597 105.778 33.2146C106.05 33.3541 106.368 33.4703 106.733 33.5633C107.098 33.6485 107.587 33.7492 108.201 33.8654C108.868 33.9971 109.396 34.1095 109.785 34.2024C110.181 34.2877 110.569 34.4077 110.949 34.5627C111.726 34.8803 112.331 35.3258 112.766 35.8991C113.209 36.4647 113.43 37.2317 113.43 38.2001C113.43 39.0058 113.24 39.7147 112.859 40.3268C112.479 40.9311 111.916 41.4036 111.171 41.7445C110.433 42.0854 109.544 42.2559 108.503 42.2559C107.727 42.2559 107.005 42.1164 106.337 41.8375C105.677 41.5508 105.102 41.1364 104.613 40.594V41.5005C104.613 41.7716 104.547 41.9653 104.415 42.0815C104.283 42.1978 104.058 42.2559 103.74 42.2559C103.421 42.2559 103.196 42.1978 103.064 42.0815C102.932 41.9653 102.866 41.7716 102.866 41.5005V38.0142C102.866 37.743 102.932 37.5493 103.064 37.4331C103.196 37.3169 103.421 37.2588 103.74 37.2588C104.074 37.2588 104.299 37.4215 104.415 37.7469C104.734 38.6456 105.238 39.3351 105.929 39.8154C106.628 40.2958 107.486 40.5359 108.503 40.5359C109.497 40.5359 110.258 40.3229 110.786 39.8968C111.322 39.4707 111.59 38.9051 111.59 38.2001C111.59 37.712 111.466 37.3169 111.217 37.0147C110.977 36.7048 110.623 36.4492 110.157 36.2478C109.862 36.116 109.54 36.0115 109.191 35.934C108.841 35.8488 108.364 35.7442 107.758 35.6202C107.121 35.4963 106.586 35.38 106.151 35.2716C105.724 35.1631 105.328 35.0275 104.963 34.8648C104.342 34.5859 103.856 34.2102 103.507 33.7376C103.165 33.2573 102.994 32.6297 102.994 31.855C102.994 31.057 103.185 30.3636 103.565 29.7748C103.953 29.186 104.489 28.7367 105.172 28.4268C105.863 28.1091 106.648 27.9503 107.525 27.9503C108.208 27.9503 108.868 28.082 109.505 28.3454C110.142 28.6088 110.685 28.9652 111.136 29.4145V28.7057C111.136 28.4345 111.202 28.2408 111.334 28.1246C111.466 28.0084 111.691 27.9503 112.009 27.9503Z" fill="#3C3C3B"/>
<path d="M125.104 31.0066C126.168 31.0066 127.127 31.2468 127.981 31.7271C128.835 32.2075 129.503 32.8776 129.984 33.7376C130.473 34.5898 130.718 35.5544 130.718 36.6312C130.718 37.7081 130.473 38.6766 129.984 39.5365C129.503 40.3887 128.835 41.055 127.981 41.5353C127.127 42.0157 126.168 42.2559 125.104 42.2559C124.04 42.2559 123.081 42.0157 122.227 41.5353C121.373 41.055 120.701 40.3887 120.212 39.5365C119.731 38.6766 119.49 37.7081 119.49 36.6312C119.49 35.5544 119.731 34.5898 120.212 33.7376C120.701 32.8776 121.373 32.2075 122.227 31.7271C123.081 31.2468 124.04 31.0066 125.104 31.0066ZM125.104 32.7266C124.351 32.7266 123.687 32.8931 123.112 33.2263C122.545 33.5517 122.107 34.0126 121.796 34.6092C121.486 35.198 121.33 35.872 121.33 36.6312C121.33 37.3905 121.486 38.0684 121.796 38.6649C122.107 39.2537 122.545 39.7147 123.112 40.0478C123.687 40.3732 124.351 40.5359 125.104 40.5359C125.857 40.5359 126.517 40.3732 127.084 40.0478C127.659 39.7147 128.101 39.2537 128.412 38.6649C128.722 38.0684 128.878 37.3905 128.878 36.6312C128.878 35.872 128.722 35.198 128.412 34.6092C128.101 34.0126 127.659 33.5517 127.084 33.2263C126.517 32.8931 125.857 32.7266 125.104 32.7266Z" fill="#3C3C3B"/>
<path d="M146.224 31.0066C146.542 31.0066 146.767 31.0647 146.899 31.181C147.031 31.2972 147.097 31.4909 147.097 31.762V35.1321C147.097 35.4033 147.031 35.597 146.899 35.7132C146.767 35.8294 146.542 35.8875 146.224 35.8875C145.905 35.8875 145.68 35.8294 145.548 35.7132C145.416 35.597 145.35 35.4033 145.35 35.1321C145.35 34.6595 145.226 34.2412 144.977 33.877C144.729 33.5129 144.356 33.2301 143.859 33.0287C143.37 32.8273 142.78 32.7266 142.089 32.7266C141.343 32.7266 140.676 32.8931 140.085 33.2263C139.495 33.5594 139.033 34.0242 138.699 34.6208C138.366 35.2173 138.199 35.8875 138.199 36.6312C138.199 37.3827 138.354 38.0568 138.664 38.6533C138.983 39.2421 139.425 39.7031 139.992 40.0362C140.567 40.3694 141.227 40.5359 141.972 40.5359C142.687 40.5359 143.378 40.4275 144.045 40.2105C144.721 39.9859 145.334 39.6644 145.886 39.246C146.049 39.122 146.2 39.0601 146.34 39.0601C146.565 39.0601 146.775 39.2189 146.969 39.5365C147.085 39.7302 147.144 39.9161 147.144 40.0943C147.144 40.3655 147.019 40.5902 146.771 40.7684C146.15 41.2332 145.416 41.5973 144.57 41.8607C143.723 42.1241 142.857 42.2559 141.972 42.2559C140.862 42.2559 139.88 42.0118 139.026 41.5237C138.179 41.0356 137.523 40.3655 137.057 39.5133C136.591 38.6611 136.358 37.7004 136.358 36.6312C136.358 35.5621 136.595 34.6014 137.069 33.7492C137.542 32.897 138.202 32.2269 139.049 31.7388C139.903 31.2507 140.877 31.0066 141.972 31.0066C142.663 31.0066 143.296 31.1345 143.871 31.3901C144.453 31.6381 144.946 31.9944 145.35 32.4593V31.762C145.35 31.4909 145.416 31.2972 145.548 31.181C145.68 31.0647 145.905 31.0066 146.224 31.0066Z" fill="#3C3C3B"/>
<path d="M159.376 31.2623C159.64 31.2623 159.827 31.3243 159.935 31.4482C160.052 31.5645 160.11 31.7659 160.11 32.0525V40.4197H163.849C164.113 40.4197 164.299 40.4817 164.408 40.6057C164.524 40.7219 164.583 40.9233 164.583 41.21C164.583 41.4966 164.524 41.7019 164.408 41.8259C164.299 41.9421 164.113 42.0002 163.849 42.0002H154.718C154.454 42.0002 154.263 41.9421 154.147 41.8259C154.038 41.7019 153.984 41.4966 153.984 41.21C153.984 40.9233 154.038 40.7219 154.147 40.6057C154.263 40.4817 154.454 40.4197 154.718 40.4197H158.363V32.8428H155.416C155.152 32.8428 154.962 32.7847 154.846 32.6685C154.737 32.5445 154.683 32.3392 154.683 32.0525C154.683 31.7659 154.737 31.5645 154.846 31.4482C154.962 31.3243 155.152 31.2623 155.416 31.2623H159.376ZM159.004 26.1606C159.431 26.1606 159.722 26.2187 159.877 26.335C160.033 26.4434 160.11 26.6371 160.11 26.916V28.4268C160.11 28.7057 160.033 28.9032 159.877 29.0194C159.722 29.1279 159.431 29.1821 159.004 29.1821C158.577 29.1821 158.285 29.1279 158.13 29.0194C157.975 28.9032 157.897 28.7057 157.897 28.4268V26.916C157.897 26.6371 157.975 26.4434 158.13 26.335C158.285 26.2187 158.577 26.1606 159.004 26.1606Z" fill="#3C3C3B"/>
<path d="M175.93 31.0066C177.39 31.0066 178.485 31.332 179.215 31.9828C179.945 32.6336 180.31 33.5981 180.31 34.8765V39.5017C180.31 40.1137 180.566 40.4197 181.078 40.4197H181.486C181.75 40.4197 181.936 40.4817 182.045 40.6057C182.162 40.7219 182.22 40.9233 182.22 41.21C182.22 41.4966 182.162 41.7019 182.045 41.8259C181.936 41.9421 181.75 42.0002 181.486 42.0002H180.741C180.236 42.0002 179.801 41.8762 179.436 41.6283C179.079 41.3727 178.846 41.0008 178.737 40.5127C178.101 41.0705 177.41 41.5005 176.664 41.8026C175.926 42.1048 175.142 42.2559 174.311 42.2559C173.527 42.2559 172.832 42.1241 172.227 41.8607C171.629 41.5896 171.159 41.1983 170.817 40.687C170.476 40.1757 170.305 39.5675 170.305 38.8625C170.305 37.6384 170.743 36.7358 171.621 36.1548C172.498 35.566 173.632 35.2716 175.022 35.2716C176.256 35.2716 177.437 35.4691 178.563 35.8643V34.8765C178.563 34.125 178.349 33.5749 177.922 33.2263C177.503 32.8699 176.823 32.6917 175.884 32.6917C175.301 32.6917 174.696 32.773 174.067 32.9357C173.438 33.0984 172.84 33.3231 172.273 33.6098C172.141 33.6795 172.021 33.7144 171.912 33.7144C171.656 33.7144 171.442 33.5284 171.271 33.1565C171.186 32.9706 171.143 32.8157 171.143 32.6917C171.143 32.4205 171.287 32.2114 171.574 32.0642C172.227 31.7233 172.925 31.4637 173.671 31.2855C174.424 31.0996 175.177 31.0066 175.93 31.0066ZM175.033 36.9102C174.141 36.9102 173.434 37.0651 172.914 37.375C172.401 37.6771 172.145 38.1614 172.145 38.8276C172.145 39.3932 172.339 39.8348 172.727 40.1524C173.123 40.4623 173.675 40.6173 174.381 40.6173C175.926 40.6173 177.32 39.9781 178.563 38.6998V37.4331C178.035 37.2627 177.468 37.1348 176.862 37.0496C176.256 36.9566 175.647 36.9102 175.033 36.9102Z" fill="#3C3C3B"/>
<path d="M193.113 26.7533C193.377 26.7533 193.564 26.8153 193.672 26.9393C193.789 27.0555 193.847 27.2569 193.847 27.5436V40.4197H197.586C197.85 40.4197 198.036 40.4817 198.145 40.6057C198.261 40.7219 198.319 40.9233 198.319 41.21C198.319 41.4966 198.261 41.7019 198.145 41.8259C198.036 41.9421 197.85 42.0002 197.586 42.0002H188.454C188.19 42.0002 188 41.9421 187.884 41.8259C187.775 41.7019 187.721 41.4966 187.721 41.21C187.721 40.9233 187.775 40.7219 187.884 40.6057C188 40.4817 188.19 40.4197 188.454 40.4197H192.1V28.3338H188.92C188.656 28.3338 188.466 28.2757 188.349 28.1595C188.241 28.0355 188.186 27.8302 188.186 27.5436C188.186 27.2569 188.241 27.0555 188.349 26.9393C188.466 26.8153 188.656 26.7533 188.92 26.7533H193.113Z" fill="#3C3C3B"/>
<path d="M226.966 28.206C227.277 28.206 227.525 28.2679 227.712 28.3919C227.906 28.5081 228.05 28.6979 228.143 28.9613L232.254 40.4197H232.965C233.229 40.4197 233.415 40.4817 233.524 40.6057C233.64 40.7219 233.698 40.9233 233.698 41.21C233.698 41.4966 233.64 41.7019 233.524 41.8259C233.415 41.9421 233.229 42.0002 232.965 42.0002H228.842C228.578 42.0002 228.387 41.9421 228.271 41.8259C228.162 41.7019 228.108 41.4966 228.108 41.21C228.108 40.9233 228.162 40.7219 228.271 40.6057C228.387 40.4817 228.578 40.4197 228.842 40.4197H230.414L229.459 37.6539H223.81L222.843 40.4197H224.253C224.517 40.4197 224.703 40.4817 224.812 40.6057C224.928 40.7219 224.986 40.9233 224.986 41.21C224.986 41.4966 224.928 41.7019 224.812 41.8259C224.703 41.9421 224.517 42.0002 224.253 42.0002H220.362C220.098 42.0002 219.908 41.9421 219.792 41.8259C219.683 41.7019 219.629 41.4966 219.629 41.21C219.629 40.9233 219.683 40.7219 219.792 40.6057C219.908 40.4817 220.098 40.4197 220.362 40.4197H221.015L224.87 29.7864H222.692C222.428 29.7864 222.238 29.7283 222.121 29.6121C222.012 29.4882 221.958 29.2828 221.958 28.9962C221.958 28.7095 222.012 28.5081 222.121 28.3919C222.238 28.2679 222.428 28.206 222.692 28.206H226.966ZM226.535 29.7864L224.357 36.0734H228.923L226.757 29.7864H226.535Z" fill="#3C3C3B"/>
<path d="M247.154 31.0066C247.76 31.0066 248.327 31.1616 248.855 31.4715C249.165 31.6574 249.321 31.8976 249.321 32.192C249.321 32.3314 249.286 32.4941 249.216 32.6801C249.053 33.1217 248.827 33.3425 248.54 33.3425C248.424 33.3425 248.315 33.3115 248.214 33.2495C247.834 33.0403 247.426 32.9357 246.991 32.9357C246.292 32.9357 245.59 33.1798 244.883 33.6679C244.176 34.1482 243.594 34.7912 243.136 35.597C242.686 36.4027 242.46 37.2588 242.46 38.1652V40.4197H246.385C246.649 40.4197 246.836 40.4817 246.945 40.6057C247.061 40.7219 247.119 40.9233 247.119 41.21C247.119 41.4966 247.061 41.7019 246.945 41.8259C246.836 41.9421 246.649 42.0002 246.385 42.0002H238.885C238.621 42.0002 238.43 41.9421 238.314 41.8259C238.205 41.7019 238.151 41.4966 238.151 41.21C238.151 40.9233 238.205 40.7219 238.314 40.6057C238.43 40.4817 238.621 40.4197 238.885 40.4197H240.713V32.8428H239.234C238.97 32.8428 238.78 32.7847 238.663 32.6685C238.555 32.5445 238.5 32.3392 238.5 32.0525C238.5 31.7659 238.555 31.5645 238.663 31.4482C238.78 31.3243 238.97 31.2623 239.234 31.2623H241.61C241.874 31.2623 242.06 31.3243 242.169 31.4482C242.286 31.5645 242.344 31.7659 242.344 32.0525V34.4C242.717 33.7182 243.167 33.1217 243.695 32.6103C244.223 32.099 244.786 31.7039 245.384 31.425C245.982 31.1461 246.572 31.0066 247.154 31.0066Z" fill="#3C3C3B"/>
<path d="M256.731 26.7533C256.995 26.7533 257.182 26.8153 257.29 26.9393C257.407 27.0555 257.465 27.2569 257.465 27.5436V32.9241C258.467 31.6458 259.698 31.0066 261.157 31.0066C262.12 31.0066 262.982 31.2352 263.743 31.6923C264.504 32.1416 265.102 32.7924 265.537 33.6446C265.971 34.4891 266.189 35.4846 266.189 36.6312C266.189 37.7779 265.971 38.7773 265.537 39.6295C265.102 40.474 264.504 41.1247 263.743 41.5818C262.982 42.0312 262.12 42.2559 261.157 42.2559C260.396 42.2559 259.694 42.0854 259.049 41.7445C258.405 41.4036 257.838 40.9156 257.349 40.2803V41.21C257.349 41.4966 257.29 41.7019 257.174 41.8259C257.065 41.9421 256.879 42.0002 256.615 42.0002H254.763C254.499 42.0002 254.309 41.9421 254.192 41.8259C254.084 41.7019 254.029 41.4966 254.029 41.21C254.029 40.9233 254.084 40.7219 254.192 40.6057C254.309 40.4817 254.499 40.4197 254.763 40.4197H255.718V28.3338H254.53C254.266 28.3338 254.076 28.2757 253.959 28.1595C253.851 28.0355 253.796 27.8302 253.796 27.5436C253.796 27.2569 253.851 27.0555 253.959 26.9393C254.076 26.8153 254.266 26.7533 254.53 26.7533H256.731ZM261.041 32.7266C260.35 32.7266 259.732 32.8815 259.189 33.1914C258.653 33.5013 258.23 33.9506 257.919 34.5395C257.617 35.1283 257.465 35.8255 257.465 36.6312C257.465 37.437 257.617 38.1342 257.919 38.723C258.23 39.3118 258.653 39.7612 259.189 40.0711C259.732 40.381 260.35 40.5359 261.041 40.5359C261.732 40.5359 262.326 40.3732 262.823 40.0478C263.32 39.7147 263.696 39.2537 263.953 38.6649C264.217 38.0761 264.349 37.3982 264.349 36.6312C264.349 35.8643 264.217 35.1864 263.953 34.5976C263.696 34.0088 263.32 33.5517 262.823 33.2263C262.326 32.8931 261.732 32.7266 261.041 32.7266Z" fill="#3C3C3B"/>
<defs>
<clipPath id="clip0">
<rect width="79.9791" height="70" fill="white"/>
</clipPath>
</defs>
</svg>
