<svg width="191" height="50" viewBox="0 0 191 50" fill="none" xmlns="http://www.w3.org/2000/svg">
<g clip-path="url(#clip0)">
<path d="M57 0H21.9688V29.394H47.8185L57 38.0447" fill="#0D509C"/>
<path d="M0 12.0141H35.0313V41.4061H9.18149L0 50.0588" fill="#FDC602"/>
<path d="M21.9536 12.0058H35.0071V29.3735H21.9536V12.0058Z" fill="#093E01"/>
</g>
<path d="M79.8276 19.9644C80.0545 19.9644 80.215 20.0059 80.3091 20.0889C80.4032 20.1719 80.4502 20.3102 80.4502 20.5039V22.4131C80.4502 22.6068 80.4032 22.7451 80.3091 22.8281C80.215 22.9111 80.0545 22.9526 79.8276 22.9526C79.6174 22.9526 79.4735 22.8807 79.396 22.7368C79.1304 22.2332 78.7568 21.8514 78.2754 21.5913C77.7939 21.3257 77.2461 21.1929 76.6318 21.1929C76.0231 21.1929 75.55 21.334 75.2124 21.6162C74.8804 21.8984 74.7144 22.2775 74.7144 22.7534C74.7144 22.9803 74.7725 23.1712 74.8887 23.3262C75.0049 23.4811 75.1709 23.6139 75.3867 23.7246C75.5804 23.8242 75.8073 23.9072 76.0674 23.9736C76.3275 24.0345 76.6761 24.1064 77.1133 24.1895C77.5892 24.2835 77.9655 24.3638 78.2422 24.4302C78.5244 24.491 78.8011 24.5768 79.0723 24.6875C79.6257 24.9144 80.0573 25.2326 80.3672 25.6421C80.6826 26.0461 80.8403 26.5939 80.8403 27.2856C80.8403 27.8612 80.7048 28.3675 80.4336 28.8047C80.1624 29.2363 79.7612 29.5739 79.23 29.8174C78.7043 30.0609 78.0706 30.1826 77.3291 30.1826C76.7757 30.1826 76.2611 30.083 75.7852 29.8838C75.3148 29.679 74.9053 29.383 74.5566 28.9956V29.6431C74.5566 29.8368 74.5096 29.9751 74.4155 30.0581C74.3215 30.1411 74.161 30.1826 73.9341 30.1826C73.7072 30.1826 73.5467 30.1411 73.4526 30.0581C73.3586 29.9751 73.3115 29.8368 73.3115 29.6431V27.1528C73.3115 26.9591 73.3586 26.8208 73.4526 26.7378C73.5467 26.6548 73.7072 26.6133 73.9341 26.6133C74.172 26.6133 74.3325 26.7295 74.4155 26.9619C74.6424 27.6038 75.0021 28.0964 75.4946 28.4395C75.9927 28.7826 76.6042 28.9541 77.3291 28.9541C78.0374 28.9541 78.5798 28.8019 78.9561 28.4976C79.3379 28.1932 79.5288 27.7892 79.5288 27.2856C79.5288 26.937 79.4403 26.6548 79.2632 26.439C79.0916 26.2176 78.8398 26.035 78.5078 25.8911C78.2975 25.797 78.0679 25.7223 77.8188 25.667C77.5698 25.6061 77.2295 25.5314 76.7979 25.4429C76.3441 25.3543 75.9622 25.2713 75.6523 25.1938C75.348 25.1164 75.0658 25.0195 74.8057 24.9033C74.363 24.7041 74.0171 24.4357 73.7681 24.0981C73.5246 23.755 73.4028 23.3068 73.4028 22.7534C73.4028 22.1834 73.5384 21.6882 73.8096 21.2676C74.0863 20.847 74.4681 20.526 74.9551 20.3047C75.4476 20.0778 76.0065 19.9644 76.6318 19.9644C77.1188 19.9644 77.5892 20.0584 78.043 20.2466C78.4967 20.4347 78.8841 20.6893 79.2051 21.0103V20.5039C79.2051 20.3102 79.2521 20.1719 79.3462 20.0889C79.4403 20.0059 79.6007 19.9644 79.8276 19.9644Z" fill="white"/>
<path d="M89.16 22.1475C89.9182 22.1475 90.6016 22.319 91.2103 22.6621C91.8191 23.0052 92.295 23.4839 92.6381 24.0981C92.9867 24.7069 93.161 25.3958 93.161 26.165C93.161 26.9342 92.9867 27.626 92.6381 28.2402C92.295 28.849 91.8191 29.3249 91.2103 29.668C90.6016 30.0111 89.9182 30.1826 89.16 30.1826C88.4019 30.1826 87.7185 30.0111 87.1097 29.668C86.501 29.3249 86.0223 28.849 85.6737 28.2402C85.3306 27.626 85.1591 26.9342 85.1591 26.165C85.1591 25.3958 85.3306 24.7069 85.6737 24.0981C86.0223 23.4839 86.501 23.0052 87.1097 22.6621C87.7185 22.319 88.4019 22.1475 89.16 22.1475ZM89.16 23.376C88.6233 23.376 88.1501 23.495 87.7406 23.7329C87.3366 23.9653 87.024 24.2946 86.8026 24.7207C86.5813 25.1413 86.4706 25.6227 86.4706 26.165C86.4706 26.7074 86.5813 27.1916 86.8026 27.6177C87.024 28.0382 87.3366 28.3675 87.7406 28.6055C88.1501 28.8379 88.6233 28.9541 89.16 28.9541C89.6968 28.9541 90.1672 28.8379 90.5712 28.6055C90.9807 28.3675 91.2961 28.0382 91.5175 27.6177C91.7388 27.1916 91.8495 26.7074 91.8495 26.165C91.8495 25.6227 91.7388 25.1413 91.5175 24.7207C91.2961 24.2946 90.9807 23.9653 90.5712 23.7329C90.1672 23.495 89.6968 23.376 89.16 23.376Z" fill="white"/>
<path d="M104.212 22.1475C104.439 22.1475 104.599 22.189 104.693 22.272C104.787 22.355 104.834 22.4933 104.834 22.687V25.0942C104.834 25.2879 104.787 25.4263 104.693 25.5093C104.599 25.5923 104.439 25.6338 104.212 25.6338C103.985 25.6338 103.824 25.5923 103.73 25.5093C103.636 25.4263 103.589 25.2879 103.589 25.0942C103.589 24.7567 103.501 24.4578 103.323 24.1978C103.146 23.9377 102.881 23.7357 102.527 23.5918C102.178 23.4479 101.757 23.376 101.265 23.376C100.734 23.376 100.258 23.495 99.8372 23.7329C99.4166 23.9709 99.0873 24.3029 98.8494 24.729C98.6114 25.1551 98.4924 25.6338 98.4924 26.165C98.4924 26.7018 98.6031 27.1833 98.8245 27.6094C99.0514 28.0299 99.3668 28.3592 99.7708 28.5972C100.18 28.8351 100.651 28.9541 101.182 28.9541C101.691 28.9541 102.184 28.8766 102.659 28.7217C103.141 28.5612 103.578 28.3315 103.971 28.0327C104.087 27.9442 104.195 27.8999 104.295 27.8999C104.455 27.8999 104.605 28.0133 104.743 28.2402C104.826 28.3786 104.867 28.5114 104.867 28.6387C104.867 28.8324 104.779 28.9928 104.602 29.1201C104.159 29.4521 103.636 29.7122 103.033 29.9004C102.43 30.0885 101.813 30.1826 101.182 30.1826C100.391 30.1826 99.6905 30.0083 99.0818 29.6597C98.4786 29.311 98.011 28.8324 97.679 28.2236C97.3469 27.6149 97.1809 26.9287 97.1809 26.165C97.1809 25.4014 97.3497 24.7152 97.6873 24.1064C98.0248 23.4977 98.4952 23.019 99.0984 22.6704C99.7071 22.3218 100.402 22.1475 101.182 22.1475C101.674 22.1475 102.125 22.2388 102.535 22.4214C102.95 22.5985 103.301 22.853 103.589 23.1851V22.687C103.589 22.4933 103.636 22.355 103.73 22.272C103.824 22.189 103.985 22.1475 104.212 22.1475Z" fill="white"/>
<path d="M113.586 22.3301C113.774 22.3301 113.907 22.3743 113.984 22.4629C114.067 22.5459 114.109 22.6898 114.109 22.8945V28.8711H116.773C116.961 28.8711 117.094 28.9154 117.172 29.0039C117.255 29.0869 117.296 29.2308 117.296 29.4355C117.296 29.6403 117.255 29.7869 117.172 29.8755C117.094 29.9585 116.961 30 116.773 30H110.265C110.077 30 109.942 29.9585 109.859 29.8755C109.781 29.7869 109.742 29.6403 109.742 29.4355C109.742 29.2308 109.781 29.0869 109.859 29.0039C109.942 28.9154 110.077 28.8711 110.265 28.8711H112.863V23.459H110.763C110.575 23.459 110.44 23.4175 110.357 23.3345C110.279 23.2459 110.24 23.0993 110.24 22.8945C110.24 22.6898 110.279 22.5459 110.357 22.4629C110.44 22.3743 110.575 22.3301 110.763 22.3301H113.586ZM113.32 18.686C113.624 18.686 113.832 18.7275 113.943 18.8105C114.053 18.888 114.109 19.0264 114.109 19.2256V20.3047C114.109 20.5039 114.053 20.645 113.943 20.728C113.832 20.8055 113.624 20.8442 113.32 20.8442C113.016 20.8442 112.808 20.8055 112.697 20.728C112.587 20.645 112.531 20.5039 112.531 20.3047V19.2256C112.531 19.0264 112.587 18.888 112.697 18.8105C112.808 18.7275 113.016 18.686 113.32 18.686Z" fill="white"/>
<path d="M125.383 22.1475C126.424 22.1475 127.204 22.3799 127.724 22.8447C128.244 23.3096 128.504 23.9985 128.504 24.9116V28.2153C128.504 28.6525 128.687 28.8711 129.052 28.8711H129.343C129.531 28.8711 129.664 28.9154 129.741 29.0039C129.824 29.0869 129.866 29.2308 129.866 29.4355C129.866 29.6403 129.824 29.7869 129.741 29.8755C129.664 29.9585 129.531 30 129.343 30H128.812C128.452 30 128.142 29.9115 127.882 29.7344C127.627 29.5518 127.461 29.2861 127.384 28.9375C126.93 29.3359 126.438 29.6431 125.906 29.8589C125.381 30.0747 124.822 30.1826 124.23 30.1826C123.671 30.1826 123.175 30.0885 122.744 29.9004C122.318 29.7067 121.983 29.4272 121.739 29.062C121.496 28.6968 121.374 28.2624 121.374 27.7588C121.374 26.8844 121.687 26.2397 122.312 25.8247C122.937 25.4041 123.745 25.1938 124.736 25.1938C125.616 25.1938 126.457 25.335 127.259 25.6172V24.9116C127.259 24.3748 127.107 23.9819 126.803 23.7329C126.504 23.4784 126.02 23.3511 125.35 23.3511C124.935 23.3511 124.503 23.4092 124.055 23.5254C123.607 23.6416 123.181 23.8021 122.777 24.0068C122.683 24.0566 122.597 24.0815 122.52 24.0815C122.337 24.0815 122.185 23.9487 122.063 23.6831C122.002 23.5503 121.972 23.4396 121.972 23.3511C121.972 23.1574 122.074 23.008 122.279 22.9028C122.744 22.6593 123.242 22.474 123.773 22.3467C124.31 22.2139 124.847 22.1475 125.383 22.1475ZM124.744 26.3643C124.108 26.3643 123.604 26.4749 123.233 26.6963C122.868 26.9121 122.686 27.258 122.686 27.7339C122.686 28.1379 122.824 28.4533 123.101 28.6802C123.383 28.9015 123.776 29.0122 124.279 29.0122C125.381 29.0122 126.374 28.5557 127.259 27.6426V26.7378C126.883 26.616 126.479 26.5247 126.047 26.4639C125.616 26.3975 125.181 26.3643 124.744 26.3643Z" fill="white"/>
<path d="M137.629 19.1094C137.817 19.1094 137.95 19.1536 138.028 19.2422C138.111 19.3252 138.152 19.4691 138.152 19.6738V28.8711H140.817C141.005 28.8711 141.138 28.9154 141.215 29.0039C141.298 29.0869 141.34 29.2308 141.34 29.4355C141.34 29.6403 141.298 29.7869 141.215 29.8755C141.138 29.9585 141.005 30 140.817 30H134.309C134.121 30 133.985 29.9585 133.902 29.8755C133.825 29.7869 133.786 29.6403 133.786 29.4355C133.786 29.2308 133.825 29.0869 133.902 29.0039C133.985 28.9154 134.121 28.8711 134.309 28.8711H136.907V20.2383H134.641C134.453 20.2383 134.317 20.1968 134.234 20.1138C134.157 20.0252 134.118 19.8786 134.118 19.6738C134.118 19.4691 134.157 19.3252 134.234 19.2422C134.317 19.1536 134.453 19.1094 134.641 19.1094H137.629Z" fill="white"/>
<path d="M161.756 20.147C161.977 20.147 162.154 20.1912 162.287 20.2798C162.426 20.3628 162.528 20.4984 162.594 20.6865L165.525 28.8711H166.031C166.219 28.8711 166.352 28.9154 166.429 29.0039C166.512 29.0869 166.554 29.2308 166.554 29.4355C166.554 29.6403 166.512 29.7869 166.429 29.8755C166.352 29.9585 166.219 30 166.031 30H163.092C162.904 30 162.769 29.9585 162.686 29.8755C162.608 29.7869 162.569 29.6403 162.569 29.4355C162.569 29.2308 162.608 29.0869 162.686 29.0039C162.769 28.9154 162.904 28.8711 163.092 28.8711H164.213L163.532 26.8955H159.507L158.818 28.8711H159.822C160.01 28.8711 160.143 28.9154 160.22 29.0039C160.303 29.0869 160.345 29.2308 160.345 29.4355C160.345 29.6403 160.303 29.7869 160.22 29.8755C160.143 29.9585 160.01 30 159.822 30H157.049C156.861 30 156.726 29.9585 156.643 29.8755C156.565 29.7869 156.527 29.6403 156.527 29.4355C156.527 29.2308 156.565 29.0869 156.643 29.0039C156.726 28.9154 156.861 28.8711 157.049 28.8711H157.514L160.262 21.2759H158.71C158.521 21.2759 158.386 21.2344 158.303 21.1514C158.225 21.0628 158.187 20.9162 158.187 20.7114C158.187 20.5067 158.225 20.3628 158.303 20.2798C158.386 20.1912 158.521 20.147 158.71 20.147H161.756ZM161.449 21.2759L159.897 25.7666H163.151L161.607 21.2759H161.449Z" fill="white"/>
<path d="M176.144 22.1475C176.575 22.1475 176.979 22.2581 177.356 22.4795C177.577 22.6123 177.688 22.7839 177.688 22.9941C177.688 23.0938 177.663 23.21 177.613 23.3428C177.497 23.6582 177.336 23.8159 177.131 23.8159C177.048 23.8159 176.971 23.7938 176.899 23.7495C176.628 23.6001 176.337 23.5254 176.027 23.5254C175.529 23.5254 175.029 23.6997 174.525 24.0483C174.021 24.3914 173.606 24.8507 173.28 25.4263C172.959 26.0018 172.798 26.6133 172.798 27.2607V28.8711H175.596C175.784 28.8711 175.917 28.9154 175.994 29.0039C176.077 29.0869 176.119 29.2308 176.119 29.4355C176.119 29.6403 176.077 29.7869 175.994 29.8755C175.917 29.9585 175.784 30 175.596 30H170.25C170.062 30 169.926 29.9585 169.843 29.8755C169.766 29.7869 169.727 29.6403 169.727 29.4355C169.727 29.2308 169.766 29.0869 169.843 29.0039C169.926 28.9154 170.062 28.8711 170.25 28.8711H171.553V23.459H170.499C170.311 23.459 170.175 23.4175 170.092 23.3345C170.015 23.2459 169.976 23.0993 169.976 22.8945C169.976 22.6898 170.015 22.5459 170.092 22.4629C170.175 22.3743 170.311 22.3301 170.499 22.3301H172.192C172.381 22.3301 172.513 22.3743 172.591 22.4629C172.674 22.5459 172.715 22.6898 172.715 22.8945V24.5713C172.981 24.0843 173.302 23.6582 173.678 23.293C174.055 22.9277 174.456 22.6455 174.882 22.4463C175.308 22.2471 175.729 22.1475 176.144 22.1475Z" fill="white"/>
<path d="M182.969 19.1094C183.157 19.1094 183.29 19.1536 183.368 19.2422C183.451 19.3252 183.492 19.4691 183.492 19.6738V23.5171C184.206 22.604 185.083 22.1475 186.123 22.1475C186.81 22.1475 187.424 22.3107 187.966 22.6372C188.509 22.9582 188.935 23.423 189.245 24.0317C189.554 24.6349 189.709 25.346 189.709 26.165C189.709 26.984 189.554 27.6979 189.245 28.3066C188.935 28.9098 188.509 29.3747 187.966 29.7012C187.424 30.0221 186.81 30.1826 186.123 30.1826C185.581 30.1826 185.08 30.0609 184.621 29.8174C184.162 29.5739 183.758 29.2253 183.409 28.7715V29.4355C183.409 29.6403 183.368 29.7869 183.285 29.8755C183.207 29.9585 183.074 30 182.886 30H181.566C181.378 30 181.243 29.9585 181.16 29.8755C181.082 29.7869 181.043 29.6403 181.043 29.4355C181.043 29.2308 181.082 29.0869 181.16 29.0039C181.243 28.9154 181.378 28.8711 181.566 28.8711H182.247V20.2383H181.4C181.212 20.2383 181.077 20.1968 180.994 20.1138C180.916 20.0252 180.877 19.8786 180.877 19.6738C180.877 19.4691 180.916 19.3252 180.994 19.2422C181.077 19.1536 181.212 19.1094 181.4 19.1094H182.969ZM186.04 23.376C185.548 23.376 185.108 23.4867 184.721 23.708C184.339 23.9294 184.037 24.2503 183.816 24.6709C183.6 25.0915 183.492 25.5895 183.492 26.165C183.492 26.7406 183.6 27.2386 183.816 27.6592C184.037 28.0798 184.339 28.4007 184.721 28.6221C185.108 28.8434 185.548 28.9541 186.04 28.9541C186.533 28.9541 186.956 28.8379 187.31 28.6055C187.665 28.3675 187.933 28.0382 188.116 27.6177C188.304 27.1971 188.398 26.7129 188.398 26.165C188.398 25.6172 188.304 25.133 188.116 24.7124C187.933 24.2918 187.665 23.9653 187.31 23.7329C186.956 23.495 186.533 23.376 186.04 23.376Z" fill="white"/>
<defs>
<clipPath id="clip0">
<rect width="57" height="50" fill="white"/>
</clipPath>
</defs>
</svg>
